<svg width="137" height="31" viewBox="0 0 137 31" fill="none" xmlns="http://www.w3.org/2000/svg">
<path fill-rule="evenodd" clip-rule="evenodd" d="M94.5263 29.1468H89.3847V0.5H94.5263V29.1468ZM0.953346 6.77029L0.857895 6.82354V12.4011L9.3212 7.69545V20.6344C9.3212 23.9823 10.4793 26.3251 11.472 27.317C12.0447 27.8827 12.7193 28.3087 13.4829 28.5749C14.3419 28.901 14.8892 29.0608 15.2455 29.0807C15.621 29.1074 15.9965 29.1273 16.4228 29.1273C17.7972 29.1273 18.9617 29.0807 19.8908 28.9742L20.0499 28.9543V24.2553L19.859 24.2686C19.2926 24.3019 18.6754 24.3152 18.0136 24.3152C15.621 24.3152 14.4565 23.137 14.4565 20.7209V7.7021L22.9197 12.4078V6.82354L11.8984 0.640241L0.953346 6.77029ZM58.6041 7.16249V9.12598C56.7141 7.44205 54.2515 6.59009 51.2861 6.59009C48.3526 6.59009 45.7882 7.7349 43.6564 9.98459C43.3446 10.3107 43.0647 10.6502 42.7975 10.9963C41.2448 13.033 40.462 15.4291 40.462 18.1313C40.462 20.8469 41.2512 23.2431 42.7975 25.2731C43.0647 25.6259 43.3574 25.972 43.6755 26.3048C44.7955 27.5028 46.0428 28.388 47.4045 28.9604C48.6136 29.4663 49.9053 29.7259 51.2799 29.7259C52.8834 29.7259 54.3343 29.4663 55.6387 28.9604C56.7332 28.5411 57.7195 27.9554 58.5913 27.19V28.9604V29.1535H63.7329V7.16249H59.5268H58.6041ZM56.7204 22.7976C55.4606 24.0221 53.8888 24.6411 52.0561 24.6411C50.2426 24.6411 48.7026 24.0221 47.4872 22.7976C46.2463 21.5928 45.6164 20.0353 45.6164 18.1584C45.6164 16.2615 46.2272 14.7372 47.4872 13.4926C48.709 12.2879 50.2426 11.6755 52.0497 11.6755C53.8761 11.6755 55.4415 12.2879 56.7141 13.4926C57.9868 14.7306 58.6104 16.2548 58.6104 18.1584C58.6104 20.0686 57.9932 21.5861 56.7204 22.7976ZM30.9846 10.2375C32.6455 8.01449 34.9936 6.88965 37.9717 6.88965C38.538 6.88965 39.0471 6.90296 39.5307 6.92958L39.6961 6.94289V12.1345L38.328 11.9614C36.0372 11.9614 34.2173 12.8932 32.9509 14.7236C31.6274 16.6271 30.9846 18.5308 30.9846 20.5408V29.1468H25.843V7.16253H30.9846V10.2375ZM108.526 6.59009C105.395 6.59009 102.78 7.71494 100.756 9.93134C98.7324 12.1477 97.7079 14.9166 97.7079 18.1513C97.7079 21.5592 98.7642 24.3679 100.858 26.5044C102.977 28.6676 105.579 29.7192 108.812 29.7192C111.593 29.7192 114.285 29.0603 116.792 27.7557L116.983 27.6559L114.081 23.3629L113.941 23.4295C112.35 24.2348 110.683 24.6342 108.857 24.6342C105.758 24.6342 103.76 23.2363 102.913 20.4808H119.324V18.6039C119.324 14.8633 118.249 11.8948 116.13 9.77826C114.005 7.66169 111.446 6.59009 108.526 6.59009ZM106.506 12.028C104.775 12.6603 103.528 14.0048 102.962 15.8219H114.066C113.646 14.5107 112.933 13.4923 111.947 12.7802C110.426 11.642 108.339 11.3558 106.506 12.028ZM134.276 6.88306C134.842 6.88306 135.351 6.90303 135.835 6.93631L136 6.94296V12.1345L134.632 11.9615C132.341 11.9615 130.521 12.8933 129.255 14.7237C127.931 16.6272 127.289 18.5308 127.289 20.5408V29.1402H122.141V7.15595H127.289V10.231C128.95 8.00789 131.298 6.88306 134.276 6.88306ZM67.3806 12.2142H79.1719L67.4379 23.8686L67.3806 23.9219V29.1467H85.8471V24.0883H74.0049L85.8471 12.2542V7.15576H67.3806V12.2142Z" fill="white"/>
<path d="M89.3847 29.1468H88.8847V29.6468H89.3847V29.1468ZM94.5263 29.1468V29.6468H95.0263V29.1468H94.5263ZM89.3847 0.5V0H88.8847V0.5H89.3847ZM94.5263 0.5H95.0263V0H94.5263V0.5ZM0.857895 6.82354L0.614293 6.38689L0.357895 6.52994V6.82354H0.857895ZM0.953346 6.77029L1.19695 7.20693L1.19767 7.20652L0.953346 6.77029ZM0.857895 12.4011H0.357895V13.2512L1.10087 12.8381L0.857895 12.4011ZM9.3212 7.69545H9.8212V6.84536L9.07822 7.25846L9.3212 7.69545ZM11.472 27.317L11.1186 27.6707L11.1207 27.6727L11.472 27.317ZM13.4829 28.5749L13.6604 28.1072L13.6474 28.1027L13.4829 28.5749ZM15.2455 29.0807L15.281 28.5819L15.2733 28.5814L15.2455 29.0807ZM19.8908 28.9742L19.9477 29.4709L19.9527 29.4703L19.8908 28.9742ZM20.0499 28.9543L20.1118 29.4504L20.5499 29.3957V28.9543H20.0499ZM20.0499 24.2553H20.5499V23.7192L20.0152 23.7565L20.0499 24.2553ZM19.859 24.2686L19.8884 24.7677L19.8938 24.7673L19.859 24.2686ZM14.4565 7.7021L14.6994 7.26511L13.9565 6.852V7.7021H14.4565ZM22.9197 12.4078L22.6767 12.8448L23.4197 13.2579V12.4078H22.9197ZM22.9197 6.82354H23.4197V6.53074L23.1644 6.38748L22.9197 6.82354ZM11.8984 0.640241L12.143 0.20418L11.8986 0.0670443L11.6541 0.204002L11.8984 0.640241ZM58.6041 9.12598L58.2715 9.4993L59.1041 10.2411V9.12598H58.6041ZM58.6041 7.16249V6.66249H58.1041V7.16249H58.6041ZM43.6564 9.98459L44.0178 10.3301L44.0194 10.3285L43.6564 9.98459ZM42.7975 10.9963L42.4017 10.6907L42.3998 10.6931L42.7975 10.9963ZM42.7975 25.2731L43.196 24.9712L43.1952 24.9701L42.7975 25.2731ZM43.6755 26.3048L44.0408 25.9633L44.037 25.9593L43.6755 26.3048ZM47.4045 28.9604L47.2107 29.4213L47.2115 29.4216L47.4045 28.9604ZM55.6387 28.9604L55.4598 28.4935L55.4579 28.4942L55.6387 28.9604ZM58.5913 27.19H59.0913V26.0857L58.2614 26.8143L58.5913 27.19ZM58.5913 29.1535H58.0913V29.6535H58.5913V29.1535ZM63.7329 29.1535V29.6535H64.2329V29.1535H63.7329ZM63.7329 7.16249H64.2329V6.66249H63.7329V7.16249ZM56.7204 22.7976L56.3757 22.4354L56.3719 22.439L56.7204 22.7976ZM47.4872 22.7976L47.8421 22.4453L47.8355 22.4388L47.4872 22.7976ZM47.4872 13.4926L47.1361 13.1366L47.1358 13.1369L47.4872 13.4926ZM56.7141 13.4926L57.0628 13.1342L57.0579 13.1295L56.7141 13.4926ZM30.9846 10.2375H30.4846V11.7422L31.3852 10.5368L30.9846 10.2375ZM39.5307 6.92958L39.5708 6.43103L39.5582 6.43033L39.5307 6.92958ZM39.6961 6.94289H40.1961V6.48151L39.7362 6.4445L39.6961 6.94289ZM39.6961 12.1345L39.6334 12.6305L40.1961 12.7017V12.1345H39.6961ZM38.328 11.9614L38.3907 11.4654L38.3595 11.4614H38.328V11.9614ZM32.9509 14.7236L33.3614 15.009L33.3621 15.0081L32.9509 14.7236ZM30.9846 29.1468V29.6468H31.4846V29.1468H30.9846ZM25.843 29.1468H25.343V29.6468H25.843V29.1468ZM25.843 7.16253V6.66253H25.343V7.16253H25.843ZM30.9846 7.16253H31.4846V6.66253H30.9846V7.16253ZM100.756 9.93134L100.387 9.5942L100.387 9.59421L100.756 9.93134ZM100.858 26.5044L101.215 26.1545L101.215 26.1544L100.858 26.5044ZM116.792 27.7557L117.023 28.1992L117.023 28.1988L116.792 27.7557ZM116.983 27.6559L117.214 28.099L117.71 27.8397L117.397 27.3759L116.983 27.6559ZM114.081 23.3629L114.495 23.0829L114.254 22.7266L113.866 22.9114L114.081 23.3629ZM113.941 23.4295L113.726 22.9778L113.715 22.9834L113.941 23.4295ZM102.913 20.4808V19.9808H102.237L102.435 20.6276L102.913 20.4808ZM119.324 20.4808V20.9808H119.824V20.4808H119.324ZM116.13 9.77826L116.483 9.4245L116.483 9.42397L116.13 9.77826ZM102.962 15.8219L102.484 15.6731L102.282 16.3219H102.962V15.8219ZM106.506 12.028L106.678 12.4977L106.678 12.4975L106.506 12.028ZM114.066 15.8219V16.3219H114.751L114.542 15.6694L114.066 15.8219ZM111.947 12.7802L111.647 13.1805L111.654 13.1855L111.947 12.7802ZM135.835 6.93631L135.8 7.43513L135.808 7.43562L135.815 7.43591L135.835 6.93631ZM136 6.94296H136.5V6.46265L136.02 6.44336L136 6.94296ZM136 12.1345L135.937 12.6306L136.5 12.7018V12.1345H136ZM134.632 11.9615L134.695 11.4654L134.664 11.4615H134.632V11.9615ZM129.255 14.7237L129.666 15.0091L129.666 15.0081L129.255 14.7237ZM127.289 29.1402V29.6402H127.789V29.1402H127.289ZM122.141 29.1402H121.641V29.6402H122.141V29.1402ZM122.141 7.15595V6.65595H121.641V7.15595H122.141ZM127.289 7.15595H127.789V6.65595H127.289V7.15595ZM127.289 10.231H126.789V11.7356L127.689 10.5302L127.289 10.231ZM79.1719 12.2142L79.5242 12.569L80.3848 11.7142H79.1719V12.2142ZM67.3806 12.2142H66.8806V12.7142H67.3806V12.2142ZM67.4379 23.8686L67.7786 24.2345L67.7845 24.229L67.7902 24.2233L67.4379 23.8686ZM67.3806 23.9219L67.0399 23.556L66.8806 23.7043V23.9219H67.3806ZM67.3806 29.1467H66.8806V29.6467H67.3806V29.1467ZM85.8471 29.1467V29.6467H86.3471V29.1467H85.8471ZM85.8471 24.0883H86.3471V23.5883H85.8471V24.0883ZM74.0049 24.0883L73.6514 23.7346L72.7972 24.5883H74.0049V24.0883ZM85.8471 12.2542L86.2005 12.6078L86.3471 12.4614V12.2542H85.8471ZM85.8471 7.15576H86.3471V6.65576H85.8471V7.15576ZM67.3806 7.15576V6.65576H66.8806V7.15576H67.3806ZM89.3847 29.6468H94.5263V28.6468H89.3847V29.6468ZM88.8847 0.5V29.1468H89.8847V0.5H88.8847ZM94.5263 0H89.3847V1H94.5263V0ZM95.0263 29.1468V0.5H94.0263V29.1468H95.0263ZM1.1015 7.26018L1.19695 7.20693L0.709744 6.33364L0.614293 6.38689L1.1015 7.26018ZM1.35789 12.4011V6.82354H0.357895V12.4011H1.35789ZM9.07822 7.25846L0.614922 11.9641L1.10087 12.8381L9.56417 8.13245L9.07822 7.25846ZM9.8212 20.6344V7.69545H8.8212V20.6344H9.8212ZM11.8254 26.9633C10.9467 26.0853 9.8212 23.8811 9.8212 20.6344H8.8212C8.8212 24.0836 10.012 26.565 11.1186 27.6707L11.8254 26.9633ZM13.6474 28.1027C12.9557 27.8616 12.3446 27.4761 11.8234 26.9613L11.1207 27.6727C11.7449 28.2893 12.4828 28.7558 13.3183 29.047L13.6474 28.1027ZM15.2733 28.5814C15.0052 28.5665 14.5267 28.4363 13.6603 28.1074L13.3054 29.0423C14.1571 29.3656 14.7732 29.5551 15.2176 29.5799L15.2733 28.5814ZM16.4228 28.6273C16.0126 28.6273 15.65 28.6082 15.281 28.5819L15.2099 29.5794C15.592 29.6066 15.9803 29.6273 16.4228 29.6273V28.6273ZM19.8338 28.4774C18.9318 28.5808 17.7886 28.6273 16.4228 28.6273V29.6273C17.8057 29.6273 18.9916 29.5805 19.9477 29.4709L19.8338 28.4774ZM19.9879 28.4581L19.8288 28.478L19.9527 29.4703L20.1118 29.4504L19.9879 28.4581ZM19.5499 24.2553V28.9543H20.5499V24.2553H19.5499ZM19.8938 24.7673L20.0846 24.754L20.0152 23.7565L19.8243 23.7698L19.8938 24.7673ZM18.0136 24.8152C18.6815 24.8152 19.3091 24.8018 19.8884 24.7677L19.8297 23.7694C19.2761 23.802 18.6693 23.8152 18.0136 23.8152V24.8152ZM13.9565 20.7209C13.9565 22.0014 14.2649 23.0506 14.9823 23.7757C15.7008 24.5019 16.7421 24.8152 18.0136 24.8152V23.8152C16.8924 23.8152 16.1551 23.5393 15.6932 23.0724C15.2303 22.6045 14.9565 21.8565 14.9565 20.7209H13.9565ZM13.9565 7.7021V20.7209H14.9565V7.7021H13.9565ZM23.1627 11.9708L14.6994 7.26511L14.2135 8.13909L22.6767 12.8448L23.1627 11.9708ZM22.4197 6.82354V12.4078H23.4197V6.82354H22.4197ZM11.6537 1.0763L22.6751 7.2596L23.1644 6.38748L12.143 0.20418L11.6537 1.0763ZM1.19767 7.20652L12.1427 1.07648L11.6541 0.204002L0.709019 6.33405L1.19767 7.20652ZM59.1041 9.12598V7.16249H58.1041V9.12598H59.1041ZM51.2861 7.09009C54.1515 7.09009 56.4886 7.91083 58.2715 9.4993L58.9367 8.75266C56.9395 6.97326 54.3516 6.09009 51.2861 6.09009V7.09009ZM44.0194 10.3285C46.0632 8.17163 48.499 7.09009 51.2861 7.09009V6.09009C48.2062 6.09009 45.5132 7.29817 43.2935 9.64067L44.0194 10.3285ZM43.1932 11.3019C43.4541 10.964 43.7223 10.6392 44.0178 10.3301L43.2951 9.63905C42.967 9.98221 42.6753 10.3364 42.4017 10.6907L43.1932 11.3019ZM40.962 18.1313C40.962 15.5319 41.7128 13.2438 43.1951 11.2994L42.3998 10.6931C40.7767 12.8222 39.962 15.3264 39.962 18.1313H40.962ZM43.1952 24.9701C41.719 23.0321 40.962 20.7438 40.962 18.1313H39.962C39.962 20.9501 40.7833 23.454 42.3997 25.576L43.1952 24.9701ZM44.037 25.9593C43.7326 25.6409 43.4522 25.3094 43.196 24.9712L42.3989 25.575C42.6772 25.9424 42.9823 26.3031 43.3141 26.6503L44.037 25.9593ZM47.5982 28.4995C46.3076 27.9569 45.1174 27.1149 44.0408 25.9633L43.3103 26.6463C44.4736 27.8906 45.778 28.819 47.2107 29.4213L47.5982 28.4995ZM51.2799 29.2259C49.97 29.2259 48.744 28.9789 47.5975 28.4991L47.2115 29.4216C48.4832 29.9537 49.8406 30.2259 51.2799 30.2259V29.2259ZM55.4579 28.4942C54.2175 28.9753 52.8288 29.2259 51.2799 29.2259V30.2259C52.9381 30.2259 54.4511 29.9573 55.8195 29.4265L55.4579 28.4942ZM58.2614 26.8143C57.4362 27.5387 56.5016 28.0944 55.4598 28.4935L55.8176 29.4273C56.9648 28.9878 58.0028 28.372 58.9212 27.5657L58.2614 26.8143ZM59.0913 28.9604V27.19H58.0913V28.9604H59.0913ZM59.0913 29.1535V28.9604H58.0913V29.1535H59.0913ZM63.7329 28.6535H58.5913V29.6535H63.7329V28.6535ZM63.2329 7.16249V29.1535H64.2329V7.16249H63.2329ZM59.5268 7.66249H63.7329V6.66249H59.5268V7.66249ZM58.6041 7.66249H59.5268V6.66249H58.6041V7.66249ZM52.0561 25.1411C54.012 25.1411 55.7109 24.4761 57.0689 23.1561L56.3719 22.439C55.2102 23.5682 53.7655 24.1411 52.0561 24.1411V25.1411ZM47.1323 23.1498C48.4473 24.4747 50.1177 25.1411 52.0561 25.1411V24.1411C50.3675 24.1411 48.9578 23.5696 47.842 22.4453L47.1323 23.1498ZM45.1164 18.1584C45.1164 20.1583 45.7926 21.8493 47.1389 23.1563L47.8355 22.4388C46.7 21.3364 46.1164 19.9123 46.1164 18.1584H45.1164ZM47.1358 13.1369C45.7734 14.4827 45.1164 16.1385 45.1164 18.1584H46.1164C46.1164 16.3845 46.681 14.9918 47.8385 13.8483L47.1358 13.1369ZM52.0497 11.1755C50.1185 11.1755 48.4565 11.8346 47.1361 13.1366L47.8382 13.8486C48.9614 12.7411 50.3667 12.1755 52.0497 12.1755V11.1755ZM57.0579 13.1295C55.6886 11.8334 53.9988 11.1755 52.0497 11.1755V12.1755C53.7534 12.1755 55.1943 12.7424 56.3704 13.8557L57.0579 13.1295ZM59.1104 18.1584C59.1104 16.1293 58.4388 14.4728 57.0628 13.1342L56.3655 13.851C57.5347 14.9884 58.1104 16.3802 58.1104 18.1584H59.1104ZM57.0651 23.1597C58.4465 21.845 59.1104 20.1919 59.1104 18.1584H58.1104C58.1104 19.9453 57.5399 21.3273 56.3757 22.4354L57.0651 23.1597ZM37.9717 6.38965C34.8494 6.38965 32.3471 7.57846 30.5841 9.93829L31.3852 10.5368C32.9439 8.45051 35.1379 7.38965 37.9717 7.38965V6.38965ZM39.5582 6.43033C39.0643 6.40315 38.5459 6.38965 37.9717 6.38965V7.38965C38.53 7.38965 39.0299 7.40277 39.5032 7.42882L39.5582 6.43033ZM39.7362 6.4445L39.5708 6.43119L39.4906 7.42797L39.656 7.44127L39.7362 6.4445ZM40.1961 12.1345V6.94289H39.1961V12.1345H40.1961ZM38.2653 12.4575L39.6334 12.6305L39.7588 11.6384L38.3907 11.4654L38.2653 12.4575ZM33.3621 15.0081C34.5314 13.3179 36.1949 12.4614 38.328 12.4614V11.4614C35.8796 11.4614 33.9031 12.4685 32.5397 14.4391L33.3621 15.0081ZM31.4846 20.5408C31.4846 18.6477 32.087 16.8419 33.3614 15.009L32.5404 14.4382C31.1677 16.4124 30.4846 18.4138 30.4846 20.5408H31.4846ZM31.4846 29.1468V20.5408H30.4846V29.1468H31.4846ZM25.843 29.6468H30.9846V28.6468H25.843V29.6468ZM25.343 7.16253V29.1468H26.343V7.16253H25.343ZM30.9846 6.66253H25.843V7.66253H30.9846V6.66253ZM31.4846 10.2375V7.16253H30.4846V10.2375H31.4846ZM101.125 10.2685C103.05 8.16076 105.529 7.09009 108.526 7.09009V6.09009C105.261 6.09009 102.51 7.26912 100.387 9.5942L101.125 10.2685ZM98.2079 18.1513C98.2079 15.0303 99.1929 12.3849 101.125 10.2685L100.387 9.59421C98.2719 11.9105 97.2079 14.8028 97.2079 18.1513H98.2079ZM101.215 26.1544C99.2262 24.1249 98.2079 21.4486 98.2079 18.1513H97.2079C97.2079 21.6697 98.3022 24.6108 100.501 26.8543L101.215 26.1544ZM108.812 29.2192C105.704 29.2192 103.233 28.2147 101.215 26.1545L100.501 26.8542C102.72 29.1205 105.455 30.2192 108.812 30.2192V29.2192ZM116.561 27.3121C114.124 28.58 111.512 29.2192 108.812 29.2192V30.2192C111.674 30.2192 114.445 29.5406 117.023 28.1992L116.561 27.3121ZM116.751 27.2128L116.56 27.3126L117.023 28.1988L117.214 28.099L116.751 27.2128ZM113.667 23.6429L116.568 27.9359L117.397 27.3759L114.495 23.0829L113.667 23.6429ZM114.156 23.881L114.296 23.8144L113.866 22.9114L113.726 22.978L114.156 23.881ZM108.857 25.1342C110.761 25.1342 112.505 24.7166 114.167 23.8756L113.715 22.9834C112.195 23.7529 110.605 24.1342 108.857 24.1342V25.1342ZM102.435 20.6276C102.885 22.0913 103.653 23.2315 104.754 24.0006C105.851 24.7675 107.233 25.1342 108.857 25.1342V24.1342C107.381 24.1342 106.215 23.8019 105.327 23.181C104.442 22.5623 103.788 21.6258 103.391 20.334L102.435 20.6276ZM119.324 19.9808H102.913V20.9808H119.324V19.9808ZM118.824 18.6039V20.4808H119.824V18.6039H118.824ZM115.777 10.132C117.78 12.1328 118.824 14.9613 118.824 18.6039H119.824C119.824 14.7654 118.718 11.6568 116.483 9.4245L115.777 10.132ZM108.526 7.09009C111.31 7.09009 113.743 8.1066 115.777 10.1325L116.483 9.42397C114.266 7.21678 111.582 6.09009 108.526 6.09009V7.09009ZM103.439 15.9707C103.961 14.2946 105.101 13.0738 106.678 12.4977L106.334 11.5584C104.45 12.2469 103.095 13.7151 102.484 15.6731L103.439 15.9707ZM114.066 15.3219H102.962V16.3219H114.066V15.3219ZM111.654 13.1855C112.543 13.8277 113.198 14.7521 113.59 15.9745L114.542 15.6694C114.093 14.2693 113.323 13.1569 112.239 12.3748L111.654 13.1855ZM106.678 12.4975C108.358 11.8813 110.267 12.1474 111.647 13.1805L112.246 12.3799C110.585 11.1365 108.319 10.8303 106.334 11.5586L106.678 12.4975ZM135.869 6.43749C135.375 6.40347 134.854 6.38306 134.276 6.38306V7.38306C134.83 7.38306 135.328 7.40259 135.8 7.43513L135.869 6.43749ZM136.02 6.44336L135.855 6.43671L135.815 7.43591L135.98 7.44255L136.02 6.44336ZM136.5 12.1345V6.94296H135.5V12.1345H136.5ZM134.569 12.4575L135.937 12.6306L136.063 11.6385L134.695 11.4654L134.569 12.4575ZM129.666 15.0081C130.836 13.318 132.499 12.4615 134.632 12.4615V11.4615C132.184 11.4615 130.207 12.4686 128.844 14.4392L129.666 15.0081ZM127.789 20.5408C127.789 18.6478 128.391 16.842 129.666 15.0091L128.844 14.4382C127.472 16.4124 126.789 18.4139 126.789 20.5408H127.789ZM127.789 29.1402V20.5408H126.789V29.1402H127.789ZM122.141 29.6402H127.289V28.6402H122.141V29.6402ZM121.641 7.15595V29.1402H122.641V7.15595H121.641ZM127.289 6.65595H122.141V7.65595H127.289V6.65595ZM127.789 10.231V7.15595H126.789V10.231H127.789ZM134.276 6.38306C131.154 6.38306 128.651 7.57187 126.888 9.9317L127.689 10.5302C129.248 8.44392 131.442 7.38306 134.276 7.38306V6.38306ZM79.1719 11.7142H67.3806V12.7142H79.1719V11.7142ZM67.7902 24.2233L79.5242 12.569L78.8195 11.8595L67.0855 23.5138L67.7902 24.2233ZM67.7214 24.2878L67.7786 24.2345L67.0971 23.5027L67.0399 23.556L67.7214 24.2878ZM67.8806 29.1467V23.9219H66.8806V29.1467H67.8806ZM85.8471 28.6467H67.3806V29.6467H85.8471V28.6467ZM85.3471 24.0883V29.1467H86.3471V24.0883H85.3471ZM74.0049 24.5883H85.8471V23.5883H74.0049V24.5883ZM85.4937 11.9005L73.6514 23.7346L74.3583 24.442L86.2005 12.6078L85.4937 11.9005ZM85.3471 7.15576V12.2542H86.3471V7.15576H85.3471ZM67.3806 7.65576H85.8471V6.65576H67.3806V7.65576ZM67.8806 12.2142V7.15576H66.8806V12.2142H67.8806Z" fill="black"/>
</svg>
