<svg width="254" height="18" viewBox="0 0 254 18" fill="none" xmlns="http://www.w3.org/2000/svg">
<path d="M6.065 17.9972V9.80115H8.83L9.241 6.59215H6.065V4.54815C6.065 3.62215 6.323 2.98815 7.652 2.98815H9.336V0.12715C8.517 0.03915 7.693 -0.00285004 6.869 0.000149963C4.425 0.000149963 2.747 1.49215 2.747 4.23115V6.58615H0V9.79515H2.753V17.9972H6.065Z" fill="black"/>
<path d="M15.7032 8.34625H16.4181C16.8556 8.34625 17.2208 8.27203 17.5138 8.1236C17.8107 7.97125 18.0333 7.77008 18.1818 7.52008C18.3341 7.27008 18.4103 6.99274 18.4103 6.68805C18.4103 6.3443 18.3458 6.04352 18.2169 5.78571C18.088 5.52399 17.8907 5.32086 17.6251 5.17633C17.3634 5.02789 17.0275 4.95367 16.6173 4.95367C16.2579 4.95367 15.9376 5.02399 15.6564 5.16461C15.3751 5.30524 15.1525 5.50641 14.9884 5.76813C14.8243 6.02985 14.7423 6.34235 14.7423 6.70563H14.045C14.045 6.24078 14.1564 5.83258 14.379 5.48102C14.6017 5.12555 14.9083 4.84821 15.299 4.64899C15.6896 4.44977 16.129 4.35016 16.6173 4.35016C17.1212 4.35016 17.5587 4.44196 17.9298 4.62555C18.3048 4.80914 18.5939 5.07672 18.797 5.42828C19.004 5.77985 19.1075 6.20758 19.1075 6.71149C19.1075 6.9693 19.0509 7.22321 18.9376 7.47321C18.8282 7.72321 18.6642 7.94977 18.4454 8.15289C18.2267 8.35211 17.9552 8.51227 17.631 8.63336C17.3068 8.75446 16.9298 8.815 16.5001 8.815H15.7032V8.34625ZM15.7032 8.94977V8.48688H16.5001C16.9884 8.48688 17.4064 8.54352 17.754 8.6568C18.1017 8.76617 18.3868 8.92242 18.6095 9.12555C18.8361 9.32477 19.0021 9.55719 19.1075 9.82281C19.213 10.0884 19.2657 10.3736 19.2657 10.6783C19.2657 11.0689 19.2013 11.4146 19.0724 11.7154C18.9435 12.0162 18.7599 12.272 18.5216 12.483C18.2872 12.69 18.0099 12.8482 17.6896 12.9576C17.3732 13.063 17.0255 13.1158 16.6466 13.1158C16.3029 13.1158 15.9669 13.065 15.6388 12.9634C15.3146 12.8619 15.0216 12.7115 14.7599 12.5123C14.5021 12.3091 14.297 12.0552 14.1447 11.7505C13.9923 11.442 13.9161 11.0865 13.9161 10.6841H14.6134C14.6134 11.0435 14.6993 11.3619 14.8712 11.6392C15.0431 11.9127 15.2814 12.1275 15.5861 12.2838C15.8947 12.4361 16.2482 12.5123 16.6466 12.5123C17.049 12.5123 17.3927 12.4439 17.6779 12.3072C17.9669 12.1666 18.1876 11.9615 18.34 11.692C18.4923 11.4224 18.5685 11.0923 18.5685 10.7017C18.5685 10.2916 18.4767 9.95758 18.2931 9.69977C18.1134 9.44196 17.8615 9.2525 17.5372 9.13141C17.2169 9.01031 16.8439 8.94977 16.4181 8.94977H15.7032ZM20.8478 12.5709C20.8478 12.4341 20.8907 12.3189 20.9767 12.2252C21.0665 12.1275 21.1876 12.0787 21.34 12.0787C21.4962 12.0787 21.6193 12.1255 21.7091 12.2193C21.799 12.313 21.8439 12.4302 21.8439 12.5709C21.8439 12.7037 21.799 12.817 21.7091 12.9107C21.6193 13.0045 21.4962 13.0513 21.34 13.0513C21.1876 13.0513 21.0665 13.0045 20.9767 12.9107C20.8907 12.817 20.8478 12.7037 20.8478 12.5709ZM28.922 4.46735V4.87164L25.2775 12.9986H24.5509L28.172 5.07086H23.3146V4.46735H28.922ZM33.756 4.46735H34.4825L37.6349 11.9791L40.7931 4.46735H41.5138L37.9103 12.9986H37.3595L33.756 4.46735ZM33.5333 4.46735H34.172L34.2482 9.27203V12.9986H33.5333V4.46735ZM41.1095 4.46735H41.7482V12.9986H41.0275V9.27203L41.1095 4.46735Z" fill="black"/>
<path d="M144.969 4.978C144.982 5.153 144.982 5.327 144.982 5.501C144.982 10.826 140.929 16.962 133.522 16.962C131.24 16.962 129.12 16.301 127.336 15.153C127.66 15.19 127.972 15.203 128.309 15.203C130.192 15.203 131.925 14.567 133.31 13.482C131.539 13.445 130.055 12.285 129.543 10.689C129.792 10.726 130.042 10.751 130.304 10.751C130.665 10.751 131.028 10.701 131.365 10.614C129.518 10.24 128.135 8.619 128.135 6.661V6.611C128.672 6.91 129.295 7.097 129.955 7.122C128.87 6.4 128.159 5.165 128.159 3.768C128.159 3.02 128.358 2.334 128.707 1.736C130.69 4.179 133.671 5.776 137.013 5.951C136.951 5.651 136.913 5.34 136.913 5.028C136.913 2.808 138.709 1 140.941 1C142.101 1 143.148 1.486 143.884 2.272C144.794 2.097 145.666 1.76 146.44 1.299C146.141 2.234 145.504 3.02 144.669 3.519C145.48 3.431 146.266 3.207 146.988 2.895C146.44 3.693 145.755 4.404 144.969 4.978Z" fill="black"/>
<path d="M153.355 8.32867H154.07C154.507 8.32867 154.873 8.25446 155.166 8.10602C155.463 7.95367 155.685 7.7525 155.834 7.5025C155.986 7.2525 156.062 6.97516 156.062 6.67047C156.062 6.32672 155.998 6.02594 155.869 5.76813C155.74 5.50641 155.543 5.30328 155.277 5.15875C155.015 5.01031 154.679 4.9361 154.269 4.9361C153.91 4.9361 153.589 5.00641 153.308 5.14703C153.027 5.28766 152.804 5.48883 152.64 5.75055C152.476 6.01227 152.394 6.32477 152.394 6.68805H151.697C151.697 6.22321 151.808 5.815 152.031 5.46344C152.254 5.10797 152.56 4.83063 152.951 4.63141C153.341 4.43219 153.781 4.33258 154.269 4.33258C154.773 4.33258 155.211 4.42438 155.582 4.60797C155.957 4.79156 156.246 5.05914 156.449 5.41071C156.656 5.76227 156.759 6.19 156.759 6.69391C156.759 6.95172 156.703 7.20563 156.589 7.45563C156.48 7.70563 156.316 7.93219 156.097 8.13531C155.879 8.33453 155.607 8.49469 155.283 8.61578C154.959 8.73688 154.582 8.79742 154.152 8.79742H153.355V8.32867ZM153.355 8.93219V8.4693H154.152C154.64 8.4693 155.058 8.52594 155.406 8.63922C155.754 8.7486 156.039 8.90485 156.261 9.10797C156.488 9.30719 156.654 9.53961 156.759 9.80524C156.865 10.0709 156.918 10.356 156.918 10.6607C156.918 11.0513 156.853 11.397 156.724 11.6978C156.595 11.9986 156.412 12.2545 156.173 12.4654C155.939 12.6724 155.662 12.8306 155.341 12.94C155.025 13.0455 154.677 13.0982 154.298 13.0982C153.955 13.0982 153.619 13.0474 153.291 12.9459C152.966 12.8443 152.673 12.6939 152.412 12.4947C152.154 12.2916 151.949 12.0377 151.797 11.733C151.644 11.4244 151.568 11.0689 151.568 10.6666H152.265C152.265 11.0259 152.351 11.3443 152.523 11.6216C152.695 11.8951 152.933 12.1099 153.238 12.2662C153.547 12.4185 153.9 12.4947 154.298 12.4947C154.701 12.4947 155.045 12.4263 155.33 12.2896C155.619 12.149 155.839 11.9439 155.992 11.6744C156.144 11.4048 156.22 11.0748 156.22 10.6841C156.22 10.274 156.129 9.94 155.945 9.68219C155.765 9.42438 155.513 9.23492 155.189 9.11383C154.869 8.99274 154.496 8.93219 154.07 8.93219H153.355ZM158.5 12.5533C158.5 12.4166 158.543 12.3013 158.629 12.2076C158.718 12.1099 158.839 12.0611 158.992 12.0611C159.148 12.0611 159.271 12.108 159.361 12.2017C159.451 12.2955 159.496 12.4127 159.496 12.5533C159.496 12.6861 159.451 12.7994 159.361 12.8931C159.271 12.9869 159.148 13.0338 158.992 13.0338C158.839 13.0338 158.718 12.9869 158.629 12.8931C158.543 12.7994 158.5 12.6861 158.5 12.5533ZM166.574 4.44977V4.85406L162.929 12.981H162.203L165.824 5.05328H160.966V4.44977H166.574ZM171.408 4.44977H172.134L175.287 11.9615L178.445 4.44977H179.166L175.562 12.981H175.011L171.408 4.44977ZM171.185 4.44977H171.824L171.9 9.25446V12.981H171.185V4.44977ZM178.761 4.44977H179.4V12.981H178.679V9.25446L178.761 4.44977Z" fill="black"/>
<path fill-rule="evenodd" clip-rule="evenodd" d="M72.8359 0H63.8359C61.3612 0 59.3359 2.02432 59.3359 4.5V13.5C59.3359 15.9748 61.3612 18 63.8359 18H72.8359C75.3107 18 77.3359 15.9748 77.3359 13.5V4.5C77.3359 2.02432 75.3107 0 72.8359 0ZM68.3359 12.7499C66.2646 12.7499 64.5859 11.0704 64.5859 9C64.5859 6.92865 66.2646 5.24993 68.3359 5.24993C70.4064 5.24993 72.086 6.92865 72.086 9C72.086 11.0704 70.4064 12.7499 68.3359 12.7499ZM72.086 4.12492C72.086 4.74615 72.5891 5.24992 73.211 5.24992C73.8329 5.24992 74.336 4.74615 74.336 4.12492C74.336 3.5037 73.8329 2.99992 73.211 2.99992C72.5891 2.99992 72.086 3.5037 72.086 4.12492Z" fill="black"/>
<path d="M87.4824 12.3965V13H82.1445V12.4551L84.9395 9.28516C85.2871 8.89062 85.5645 8.54492 85.7715 8.24805C85.9785 7.94727 86.127 7.67383 86.2168 7.42773C86.3105 7.17773 86.3574 6.93555 86.3574 6.70117C86.3574 6.35742 86.2891 6.05469 86.1523 5.79297C86.0195 5.53125 85.8203 5.32617 85.5547 5.17773C85.2891 5.0293 84.9609 4.95508 84.5703 4.95508C84.1797 4.95508 83.8398 5.03906 83.5508 5.20703C83.2617 5.375 83.0391 5.60938 82.8828 5.91016C82.7305 6.20703 82.6543 6.54492 82.6543 6.92383H81.957C81.957 6.45508 82.0605 6.02539 82.2676 5.63477C82.4785 5.24414 82.7793 4.93359 83.1699 4.70312C83.5605 4.46875 84.0273 4.35156 84.5703 4.35156C85.0859 4.35156 85.5293 4.44336 85.9004 4.62695C86.2715 4.80664 86.5566 5.06641 86.7559 5.40625C86.959 5.74609 87.0605 6.15625 87.0605 6.63672C87.0605 6.89453 87.0137 7.1543 86.9199 7.41602C86.8301 7.67773 86.7051 7.93945 86.5449 8.20117C86.3887 8.45898 86.209 8.71484 86.0059 8.96875C85.8066 9.22266 85.5977 9.47266 85.3789 9.71875L83 12.3965H87.4824ZM88.8477 12.5723C88.8477 12.4355 88.8906 12.3203 88.9766 12.2266C89.0664 12.1289 89.1875 12.0801 89.3398 12.0801C89.4961 12.0801 89.6191 12.127 89.709 12.2207C89.7988 12.3145 89.8438 12.4316 89.8438 12.5723C89.8438 12.7051 89.7988 12.8184 89.709 12.9121C89.6191 13.0059 89.4961 13.0527 89.3398 13.0527C89.1875 13.0527 89.0664 13.0059 88.9766 12.9121C88.8906 12.8184 88.8477 12.7051 88.8477 12.5723ZM97.3027 10.2461V10.8438H91.2617V10.4395L95.2051 4.46875H95.791L94.959 5.91602L92.1172 10.2461H97.3027ZM95.9727 4.46875V13H95.2754V4.46875H95.9727ZM101.756 4.46875H102.482L105.635 11.9805L108.793 4.46875H109.514L105.91 13H105.359L101.756 4.46875ZM101.533 4.46875H102.172L102.248 9.27344V13H101.533V4.46875ZM109.109 4.46875H109.748V13H109.027V9.27344L109.109 4.46875Z" fill="black"/>
<path fill-rule="evenodd" clip-rule="evenodd" d="M216.955 1.54652C217.917 1.67183 218.836 2.60713 218.953 3.58254C219.367 7.15726 219.367 10.6237 218.953 14.1973C218.836 15.1727 217.917 16.1091 216.955 16.2333C211.091 16.962 205.16 16.962 199.297 16.2333C198.335 16.1088 197.416 15.1727 197.299 14.1973C196.885 10.6234 196.885 7.15726 197.299 3.58254C197.416 2.60713 198.335 1.67155 199.297 1.54652C205.16 0.817825 211.09 0.817825 216.955 1.54652ZM206.269 5.17777V12.6031L211.838 8.8906L206.269 5.17777Z" fill="black"/>
<path d="M229.41 12.2864V12.8899H224.072V12.345L226.867 9.17505C227.215 8.78052 227.492 8.43481 227.699 8.13794C227.906 7.83716 228.054 7.56372 228.144 7.31763C228.238 7.06763 228.285 6.82544 228.285 6.59106C228.285 6.24731 228.217 5.94458 228.08 5.68286C227.947 5.42114 227.748 5.21606 227.482 5.06763C227.217 4.91919 226.888 4.84497 226.498 4.84497C226.107 4.84497 225.767 4.92896 225.478 5.09692C225.189 5.26489 224.967 5.49927 224.81 5.80005C224.658 6.09692 224.582 6.43481 224.582 6.81372H223.885C223.885 6.34497 223.988 5.91528 224.195 5.52466C224.406 5.13403 224.707 4.82349 225.097 4.59302C225.488 4.35864 225.955 4.24146 226.498 4.24146C227.013 4.24146 227.457 4.33325 227.828 4.51685C228.199 4.69653 228.484 4.9563 228.683 5.29614C228.886 5.63599 228.988 6.04614 228.988 6.52661C228.988 6.78442 228.941 7.04419 228.847 7.30591C228.758 7.56763 228.633 7.82935 228.472 8.09106C228.316 8.34888 228.136 8.60474 227.933 8.85864C227.734 9.11255 227.525 9.36255 227.306 9.60864L224.927 12.2864H229.41ZM230.775 12.4622C230.775 12.3254 230.818 12.2102 230.904 12.1165C230.994 12.0188 231.115 11.97 231.267 11.97C231.424 11.97 231.547 12.0168 231.636 12.1106C231.726 12.2043 231.771 12.3215 231.771 12.4622C231.771 12.595 231.726 12.7083 231.636 12.802C231.547 12.8958 231.424 12.9426 231.267 12.9426C231.115 12.9426 230.994 12.8958 230.904 12.802C230.818 12.7083 230.775 12.595 230.775 12.4622ZM239.23 10.136V10.7336H233.189V10.3293L237.133 4.35864H237.719L236.886 5.80591L234.045 10.136H239.23ZM237.9 4.35864V12.8899H237.203V4.35864H237.9ZM243.683 4.35864H244.41L247.562 11.8704L250.72 4.35864H251.441L247.838 12.8899H247.287L243.683 4.35864ZM243.461 4.35864H244.099L244.176 9.16333V12.8899H243.461V4.35864ZM251.037 4.35864H251.676V12.8899H250.955V9.16333L251.037 4.35864Z" fill="black"/>
</svg>
