<svg width="45" height="378" viewBox="0 0 45 378" fill="none" xmlns="http://www.w3.org/2000/svg">
<path d="M18.9 12H16.5V3.6H18.9V12ZM23.7 12H21.3V0H23.7V6V12ZM28.5 12H26.1V7.2H28.5V12Z" fill="#121416"/>
<path d="M3.19756 28.608L6.89356 36.32L10.5896 28.608H9.21356L6.94156 33.616L4.66956 28.608H3.19756ZM11.9437 36H13.2877V28.608H11.9437V36ZM11.7037 26.24C11.7037 26.736 12.1197 27.152 12.6157 27.152C13.1117 27.152 13.5277 26.736 13.5277 26.24C13.5277 25.744 13.1117 25.328 12.6157 25.328C12.1197 25.328 11.7037 25.744 11.7037 26.24ZM18.7627 28.416C16.5387 28.416 15.0667 30.144 15.0667 32.304C15.0667 34.496 16.6827 36.192 18.9227 36.192C20.8747 36.192 21.9947 34.736 21.9947 34.736L21.1467 33.856C21.1467 33.856 20.3787 34.944 18.9227 34.944C17.5307 34.944 16.4587 33.904 16.3787 32.784H22.3467C22.3627 32.608 22.3627 32.496 22.3627 32.352C22.3627 29.968 20.8267 28.416 18.7627 28.416ZM16.4107 31.664C16.5067 30.896 17.1627 29.664 18.7627 29.664C20.2507 29.664 21.0027 30.832 21.0507 31.664H16.4107ZM22.8702 28.608L26.2462 36.32L28.6782 30.768L31.1102 36.32L34.4862 28.608H33.1102L31.1422 33.392L29.1742 28.608H28.2622L26.3102 33.392L24.3262 28.608H22.8702ZM35.1612 34.64C35.1612 34.64 36.2492 36.192 38.3292 36.192C39.7532 36.192 41.2572 35.456 41.2572 34.032C41.2572 32.528 40.0572 32 38.6492 31.696C37.4332 31.44 36.8572 31.136 36.8572 30.576C36.8572 30.096 37.3212 29.632 38.2652 29.632C39.3852 29.632 40.1212 30.448 40.1212 30.448L41.0012 29.536C41.0012 29.536 40.0092 28.416 38.2652 28.416C36.6172 28.416 35.5452 29.472 35.5452 30.544C35.5452 31.936 36.6652 32.56 38.2492 32.88C39.3852 33.104 39.9292 33.424 39.9292 34.064C39.9292 34.656 39.0812 34.976 38.3292 34.976C36.8732 34.976 36.0892 33.776 36.0892 33.776L35.1612 34.64ZM8.65519 49.248L9.43919 50.272L11.5832 48.56V58H12.9272V46.8H11.7272L8.65519 49.248ZM15.7796 57.28C15.7796 57.776 16.1956 58.192 16.6916 58.192C17.1876 58.192 17.6036 57.776 17.6036 57.28C17.6036 56.784 17.1876 56.368 16.6916 56.368C16.1956 56.368 15.7796 56.784 15.7796 57.28ZM24.5231 47.12L23.4351 46.416C23.4351 46.416 20.0111 52.096 19.7871 52.512C19.4671 53.104 19.2431 53.856 19.2431 54.496C19.2431 56.336 20.5551 58.192 22.9071 58.192C25.2591 58.192 26.5711 56.336 26.5711 54.464C26.5711 52.576 25.2591 50.8 22.9071 50.8C22.4431 50.8 22.1071 50.96 22.1071 50.96L24.5231 47.12ZM22.9071 52.048C24.3151 52.048 25.2271 53.152 25.2271 54.464C25.2271 55.776 24.3471 56.944 22.9071 56.944C21.4671 56.944 20.5871 55.776 20.5871 54.464C20.5871 53.152 21.4991 52.048 22.9071 52.048ZM29.8669 46.8H28.5229V58H29.8669V52.656L34.8109 58H36.6349L31.3709 52.272L36.1069 46.8H34.3949L29.8669 52.064V46.8Z" fill="#121416"/>
<path d="M17.0455 134C18.1751 134 19.0909 133.105 19.0909 132C19.0909 130.895 18.1751 130 17.0455 130C15.9158 130 15 130.895 15 132C15 133.105 15.9158 134 17.0455 134Z" stroke="#121416" stroke-width="1.5" stroke-linecap="round" stroke-linejoin="round"/>
<path d="M27.9546 128C29.0843 128 30.0001 127.105 30.0001 126C30.0001 124.895 29.0843 124 27.9546 124C26.825 124 25.9092 124.895 25.9092 126C25.9092 127.105 26.825 128 27.9546 128Z" stroke="#121416" stroke-width="1.5" stroke-linecap="round" stroke-linejoin="round"/>
<path d="M27.9546 140C29.0843 140 30.0001 139.105 30.0001 138C30.0001 136.895 29.0843 136 27.9546 136C26.825 136 25.9092 136.895 25.9092 138C25.9092 139.105 26.825 140 27.9546 140Z" stroke="#121416" stroke-width="1.5" stroke-linecap="round" stroke-linejoin="round"/>
<path d="M18.8276 132.98L26.1717 137.02M26.1717 126.98L18.8276 131.02" stroke="#121416" stroke-width="1.5" stroke-linecap="round" stroke-linejoin="round"/>
<path d="M0.598688 162.64C0.598688 162.64 1.68669 164.192 3.76669 164.192C5.19069 164.192 6.69469 163.456 6.69469 162.032C6.69469 160.528 5.49469 160 4.08669 159.696C2.87069 159.44 2.29469 159.136 2.29469 158.576C2.29469 158.096 2.75869 157.632 3.70269 157.632C4.82269 157.632 5.55869 158.448 5.55869 158.448L6.43869 157.536C6.43869 157.536 5.44669 156.416 3.70269 156.416C2.05469 156.416 0.982688 157.472 0.982688 158.544C0.982688 159.936 2.10269 160.56 3.68669 160.88C4.82269 161.104 5.36669 161.424 5.36669 162.064C5.36669 162.656 4.51869 162.976 3.76669 162.976C2.31069 162.976 1.52669 161.776 1.52669 161.776L0.598688 162.64ZM12.1679 156.416C10.8879 156.416 10.2159 157.184 9.99194 157.504V151.904H8.64794V164H9.99194V158.912C9.99194 158.912 10.6319 157.664 11.8319 157.664C12.8239 157.664 13.6079 158.208 13.6079 159.472V164H14.9519V159.248C14.9519 157.424 13.6399 156.416 12.1679 156.416ZM19.9286 156.416C18.3126 156.416 17.1606 157.168 17.1606 157.168L17.7206 158.288C17.7206 158.288 18.8086 157.664 19.9286 157.664C20.5206 157.664 21.8006 157.872 21.8006 159.408V159.808C21.8006 159.808 20.9366 159.2 19.5766 159.2C17.9126 159.2 16.6486 160.224 16.6486 161.664C16.6486 163.264 18.0726 164.192 19.4006 164.192C21.0806 164.192 21.9126 162.928 21.9126 162.928V164H23.1446V159.136C23.1446 157.76 22.1046 156.416 19.9286 156.416ZM19.6886 163.008C18.8566 163.008 17.9926 162.624 17.9926 161.664C17.9926 160.896 18.7126 160.32 19.8646 160.32C21.0646 160.32 21.8006 160.848 21.8006 160.848V161.888C21.8006 161.888 21.0006 163.008 19.6886 163.008ZM28.5001 156.416C27.0921 156.416 26.4361 157.744 26.4361 157.744V156.608H25.1881V164H26.5321V158.912C26.5321 158.912 27.0601 157.664 28.2281 157.664C28.7881 157.664 29.0761 157.824 29.0761 157.824L29.5721 156.608C29.5721 156.608 29.1081 156.416 28.5001 156.416ZM33.5596 156.416C31.3356 156.416 29.8636 158.144 29.8636 160.304C29.8636 162.496 31.4796 164.192 33.7196 164.192C35.6716 164.192 36.7916 162.736 36.7916 162.736L35.9436 161.856C35.9436 161.856 35.1756 162.944 33.7196 162.944C32.3276 162.944 31.2556 161.904 31.1756 160.784H37.1436C37.1596 160.608 37.1596 160.496 37.1596 160.352C37.1596 157.968 35.6236 156.416 33.5596 156.416ZM31.2076 159.664C31.3036 158.896 31.9596 157.664 33.5596 157.664C35.0476 157.664 35.7996 158.832 35.8476 159.664H31.2076ZM38.2081 162.64C38.2081 162.64 39.2961 164.192 41.3761 164.192C42.8001 164.192 44.3041 163.456 44.3041 162.032C44.3041 160.528 43.1041 160 41.6961 159.696C40.4801 159.44 39.9041 159.136 39.9041 158.576C39.9041 158.096 40.3681 157.632 41.3121 157.632C42.4321 157.632 43.1681 158.448 43.1681 158.448L44.0481 157.536C44.0481 157.536 43.0561 156.416 41.3121 156.416C39.6641 156.416 38.5921 157.472 38.5921 158.544C38.5921 159.936 39.7121 160.56 41.2961 160.88C42.4321 161.104 42.9761 161.424 42.9761 162.064C42.9761 162.656 42.1281 162.976 41.3761 162.976C39.9201 162.976 39.1361 161.776 39.1361 161.776L38.2081 162.64ZM7.48525 185.632L8.57325 186.336C8.57325 186.336 12.0773 180.528 12.3013 180.064C12.5733 179.504 12.7493 178.96 12.7493 178.32C12.7493 176.48 11.4373 174.608 9.08525 174.608C6.73325 174.608 5.42125 176.48 5.42125 178.32C5.42125 180.16 6.73325 181.968 9.08525 181.968C9.66125 181.968 9.90125 181.776 9.90125 181.776L7.48525 185.632ZM9.08525 180.72C7.67725 180.72 6.76525 179.632 6.76525 178.32C6.76525 177.008 7.64525 175.856 9.08525 175.856C10.5253 175.856 11.4053 177.008 11.4053 178.32C11.4053 179.632 10.4933 180.72 9.08525 180.72ZM16.1571 185.632L17.2451 186.336C17.2451 186.336 20.7491 180.528 20.9731 180.064C21.2451 179.504 21.4211 178.96 21.4211 178.32C21.4211 176.48 20.1091 174.608 17.7571 174.608C15.4051 174.608 14.0931 176.48 14.0931 178.32C14.0931 180.16 15.4051 181.968 17.7571 181.968C18.3331 181.968 18.5731 181.776 18.5731 181.776L16.1571 185.632ZM17.7571 180.72C16.3491 180.72 15.4371 179.632 15.4371 178.32C15.4371 177.008 16.3171 175.856 17.7571 175.856C19.1971 175.856 20.0771 177.008 20.0771 178.32C20.0771 179.632 19.1651 180.72 17.7571 180.72ZM28.109 175.12L27.021 174.416C27.021 174.416 23.597 180.096 23.373 180.512C23.053 181.104 22.829 181.856 22.829 182.496C22.829 184.336 24.141 186.192 26.493 186.192C28.845 186.192 30.157 184.336 30.157 182.464C30.157 180.576 28.845 178.8 26.493 178.8C26.029 178.8 25.693 178.96 25.693 178.96L28.109 175.12ZM26.493 180.048C27.901 180.048 28.813 181.152 28.813 182.464C28.813 183.776 27.933 184.944 26.493 184.944C25.053 184.944 24.173 183.776 24.173 182.464C24.173 181.152 25.085 180.048 26.493 180.048ZM33.4529 174.8H32.1089V186H33.4529V180.656L38.3969 186H40.2209L34.9569 180.272L39.6929 174.8H37.9809L33.4529 180.064V174.8Z" fill="#121416"/>
<path d="M30.8334 242C30.8334 237.4 27.1001 233.667 22.5001 233.667C17.9001 233.667 14.1667 237.4 14.1667 242C14.1667 246.033 17.0334 249.392 20.8334 250.167V244.5H19.1667V242H20.8334V239.917C20.8334 238.308 22.1417 237 23.7501 237H25.8334V239.5H24.1667C23.7084 239.5 23.3334 239.875 23.3334 240.333V242H25.8334V244.5H23.3334V250.292C27.5417 249.875 30.8334 246.325 30.8334 242Z" fill="#121416"/>
<path d="M8.288 266.248L9.072 267.272L11.216 265.56V275H12.56V263.8H11.36L8.288 266.248ZM15.3164 275H22.1004V273.752H17.8764L20.8524 269.784C21.0924 269.448 22.0204 268.392 22.0204 266.888C22.0204 265.032 20.6764 263.608 18.6124 263.608C15.8924 263.608 15.2524 266.136 15.2524 266.136L16.4044 266.568C16.4044 266.568 16.8364 264.856 18.6124 264.856C20.0044 264.856 20.6764 265.816 20.6764 266.888C20.6764 268.12 19.6684 269.24 19.2524 269.784L15.3164 275ZM31.432 271.432C31.432 268.872 29.704 267.656 27.896 267.656C26.648 267.656 25.832 268.12 25.832 268.12V265.048H31.192V263.8H24.552V270.168C24.552 270.168 26.04 268.92 27.592 268.92C28.968 268.92 30.088 269.752 30.088 271.432C30.088 273.08 28.936 273.944 27.624 273.944C25.784 273.944 25.16 272.152 25.16 272.152L23.992 272.776C23.992 272.776 24.872 275.192 27.624 275.192C29.56 275.192 31.432 273.944 31.432 271.432Z" fill="#121416"/>
<path d="M31.2168 294C30.5751 294.292 29.8834 294.483 29.1668 294.575C29.9001 294.133 30.4668 293.433 30.7334 292.592C30.0418 293.008 29.2751 293.3 28.4668 293.467C27.8084 292.75 26.8834 292.333 25.8334 292.333C23.8751 292.333 22.2751 293.933 22.2751 295.908C22.2751 296.192 22.3084 296.467 22.3668 296.725C19.4001 296.575 16.7584 295.15 15.0001 292.992C14.6918 293.517 14.5168 294.133 14.5168 294.783C14.5168 296.025 15.1418 297.125 16.1084 297.75C15.5168 297.75 14.9668 297.583 14.4834 297.333V297.358C14.4834 299.092 15.7168 300.542 17.3501 300.867C16.8257 301.01 16.2752 301.03 15.7418 300.925C15.9681 301.635 16.4114 302.257 17.0093 302.702C17.6072 303.148 18.3297 303.395 19.0751 303.408C17.8115 304.409 16.2451 304.949 14.6334 304.942C14.3501 304.942 14.0668 304.925 13.7834 304.892C15.3668 305.908 17.2501 306.5 19.2668 306.5C25.8334 306.5 29.4418 301.05 29.4418 296.325C29.4418 296.167 29.4418 296.017 29.4334 295.858C30.1334 295.358 30.7334 294.725 31.2168 294Z" fill="#121416"/>
<path d="M20.0334 342.95C20.8334 343.192 21.6417 343.333 22.5001 343.333C24.7102 343.333 26.8298 342.455 28.3926 340.893C29.9554 339.33 30.8334 337.21 30.8334 335C30.8334 333.906 30.6179 332.822 30.1991 331.811C29.7803 330.8 29.1665 329.881 28.3926 329.107C27.6188 328.334 26.7002 327.72 25.6891 327.301C24.6781 326.882 23.5944 326.667 22.5001 326.667C21.4057 326.667 20.3221 326.882 19.3111 327.301C18.3 327.72 17.3813 328.334 16.6075 329.107C15.0447 330.67 14.1667 332.79 14.1667 335C14.1667 338.542 16.3917 341.583 19.5334 342.783C19.4584 342.133 19.3834 341.058 19.5334 340.317L20.4917 336.2C20.4917 336.2 20.2501 335.717 20.2501 334.95C20.2501 333.8 20.9667 332.942 21.7834 332.942C22.5001 332.942 22.8334 333.467 22.8334 334.142C22.8334 334.858 22.3584 335.883 22.1167 336.867C21.9751 337.683 22.5501 338.4 23.3834 338.4C24.8667 338.4 26.0167 336.817 26.0167 334.583C26.0167 332.583 24.5834 331.217 22.5251 331.217C20.1751 331.217 18.7917 332.967 18.7917 334.808C18.7917 335.525 19.0251 336.25 19.4084 336.725C19.4834 336.775 19.4834 336.842 19.4584 336.967L19.2167 337.875C19.2167 338.017 19.1251 338.067 18.9834 337.967C17.9167 337.5 17.3001 335.983 17.3001 334.758C17.3001 332.125 19.1667 329.733 22.7667 329.733C25.6334 329.733 27.8667 331.792 27.8667 334.525C27.8667 337.392 26.0917 339.692 23.5501 339.692C22.7417 339.692 21.9501 339.258 21.6667 338.75L21.1084 340.725C20.9167 341.442 20.3917 342.4 20.0334 342.975V342.95Z" fill="#121416"/>
<path d="M8.032 365.056H13.744V368H15.056V365.056H16.448V363.808H15.056V356.8H13.872L8.032 365.056ZM10.272 363.808L13.744 358.848V363.808H10.272ZM17.8164 368H24.6004V366.752H20.3764L23.3524 362.784C23.5924 362.448 24.5204 361.392 24.5204 359.888C24.5204 358.032 23.1764 356.608 21.1124 356.608C18.3924 356.608 17.7524 359.136 17.7524 359.136L18.9044 359.568C18.9044 359.568 19.3364 357.856 21.1124 357.856C22.5044 357.856 23.1764 358.816 23.1764 359.888C23.1764 361.12 22.1684 362.24 21.7524 362.784L17.8164 368ZM33.932 364.432C33.932 361.872 32.204 360.656 30.396 360.656C29.148 360.656 28.332 361.12 28.332 361.12V358.048H33.692V356.8H27.052V363.168C27.052 363.168 28.54 361.92 30.092 361.92C31.468 361.92 32.588 362.752 32.588 364.432C32.588 366.08 31.436 366.944 30.124 366.944C28.284 366.944 27.66 365.152 27.66 365.152L26.492 365.776C26.492 365.776 27.372 368.192 30.124 368.192C32.06 368.192 33.932 366.944 33.932 364.432Z" fill="#121416"/>
</svg>
