<svg width="647" height="40" viewBox="0 0 647 40" fill="none" xmlns="http://www.w3.org/2000/svg">
<path d="M6.3 16.52C4.26 16.52 3.32 17.9 3.32 17.9V10.88H1.64V26H3.18V24.66C3.18 24.66 4.08 26.24 6.3 26.24C8.8 26.24 10.78 24.1 10.78 21.38C10.78 18.66 8.8 16.52 6.3 16.52ZM3.32 19.68C3.32 19.68 4.2 18.08 6.04 18.08C7.88 18.08 9.1 19.56 9.1 21.38C9.1 23.2 7.92 24.68 6.04 24.68C4.2 24.68 3.32 23.08 3.32 23.08V19.68ZM11.9658 30.18C11.9658 30.18 12.7858 30.84 13.9258 30.84C14.9058 30.84 15.9458 30.32 16.4858 28.98C16.7058 28.44 21.3458 16.76 21.3458 16.76H19.5258L16.7658 24.06L13.5258 16.76H11.6258L15.9458 26.04L15.2258 27.86C14.8658 28.76 14.5258 29.28 13.7858 29.28C13.2658 29.28 12.6858 28.8 12.6858 28.8L11.9658 30.18ZM33.1913 22.28C33.1913 23.36 32.6313 24.64 30.7513 24.64C29.1713 24.64 28.3313 23.16 28.3313 23.16L27.1113 24.22C27.1113 24.22 28.4313 26.24 30.7513 26.24C33.3313 26.24 34.8713 24.6 34.8713 22.26V12H33.1913C33.1913 12 33.1913 17.66 33.1913 22.28ZM41.9039 16.52C39.1839 16.52 37.1439 18.66 37.1439 21.38C37.1439 24.1 39.1839 26.24 41.9039 26.24C44.6239 26.24 46.6639 24.1 46.6639 21.38C46.6639 18.66 44.6239 16.52 41.9039 16.52ZM41.9039 24.68C40.0439 24.68 38.8239 23.2 38.8239 21.38C38.8239 19.56 40.0439 18.08 41.9039 18.08C43.7639 18.08 44.9839 19.56 44.9839 21.38C44.9839 23.2 43.7639 24.68 41.9039 24.68ZM52.2447 16.52C50.2247 16.52 48.7847 17.46 48.7847 17.46L49.4847 18.86C49.4847 18.86 50.8447 18.08 52.2447 18.08C52.9847 18.08 54.5847 18.34 54.5847 20.26V20.76C54.5847 20.76 53.5047 20 51.8047 20C49.7247 20 48.1447 21.28 48.1447 23.08C48.1447 25.08 49.9247 26.24 51.5847 26.24C53.6847 26.24 54.7247 24.66 54.7247 24.66V26H56.2647V19.92C56.2647 18.2 54.9647 16.52 52.2447 16.52ZM51.9447 24.76C50.9047 24.76 49.8247 24.28 49.8247 23.08C49.8247 22.12 50.7247 21.4 52.1647 21.4C53.6647 21.4 54.5847 22.06 54.5847 22.06V23.36C54.5847 23.36 53.5847 24.76 51.9447 24.76ZM63.2191 16.52C61.2191 16.52 60.3791 18.06 60.3791 18.06V16.76H58.8191V26H60.4991V19.64C60.4991 19.64 61.2991 18.08 62.7991 18.08C64.0391 18.08 65.0191 18.76 65.0191 20.34V26H66.6991V20.06C66.6991 17.78 65.0591 16.52 63.2191 16.52ZM73.6683 16.52C71.6683 16.52 70.8283 18.06 70.8283 18.06V16.76H69.2683V26H70.9483V19.64C70.9483 19.64 71.7483 18.08 73.2483 18.08C74.4883 18.08 75.4683 18.76 75.4683 20.34V26H77.1483V20.06C77.1483 17.78 75.5083 16.52 73.6683 16.52ZM83.3775 16.52C81.3575 16.52 79.9175 17.46 79.9175 17.46L80.6175 18.86C80.6175 18.86 81.9775 18.08 83.3775 18.08C84.1175 18.08 85.7175 18.34 85.7175 20.26V20.76C85.7175 20.76 84.6375 20 82.9375 20C80.8575 20 79.2775 21.28 79.2775 23.08C79.2775 25.08 81.0575 26.24 82.7175 26.24C84.8175 26.24 85.8575 24.66 85.8575 24.66V26H87.3975V19.92C87.3975 18.2 86.0975 16.52 83.3775 16.52ZM83.0775 24.76C82.0375 24.76 80.9575 24.28 80.9575 23.08C80.9575 22.12 81.8575 21.4 83.2975 21.4C84.7975 21.4 85.7175 22.06 85.7175 22.06V23.36C85.7175 23.36 84.7175 24.76 83.0775 24.76ZM113.197 12H111.417L107.837 21.7L104.437 12H103.217L99.7773 21.7L96.2373 12H94.3573L99.7373 26.4L103.777 15.38L107.797 26.4L113.197 12ZM117.623 16.52C114.843 16.52 113.003 18.68 113.003 21.38C113.003 24.12 115.023 26.24 117.823 26.24C120.263 26.24 121.663 24.42 121.663 24.42L120.603 23.32C120.603 23.32 119.643 24.68 117.823 24.68C116.083 24.68 114.743 23.38 114.643 21.98H122.103C122.123 21.76 122.123 21.62 122.123 21.44C122.123 18.46 120.203 16.52 117.623 16.52ZM114.683 20.58C114.803 19.62 115.623 18.08 117.623 18.08C119.483 18.08 120.423 19.54 120.483 20.58H114.683ZM124.394 26H126.074V10.88H124.394V26ZM129.355 26H131.035V10.88H129.355V26ZM134.256 26H135.936V16.76H134.256V26ZM133.956 13.8C133.956 14.42 134.476 14.94 135.096 14.94C135.716 14.94 136.236 14.42 136.236 13.8C136.236 13.18 135.716 12.66 135.096 12.66C134.476 12.66 133.956 13.18 133.956 13.8ZM145.62 23.36C145.62 23.36 144.72 24.68 142.92 24.68C141.06 24.68 139.84 23.2 139.84 21.38C139.84 19.56 141.06 18.08 142.92 18.08C144.56 18.08 145.46 19.2 145.46 19.2L146.6 18.18C146.6 18.18 145.28 16.52 142.92 16.52C140.2 16.52 138.16 18.68 138.16 21.38C138.16 24.1 140.2 26.24 142.92 26.24C145.36 26.24 146.7 24.46 146.7 24.46L145.62 23.36ZM154.551 26H156.891L152.211 21.12L156.531 16.76H154.331L150.371 20.86V10.88H148.691V26H150.371V21.52L154.551 26Z" fill="white"/>
<rect x="167" y="19.5" width="20" height="1" fill="white"/>
<path d="M209 27C212.866 27 216 23.866 216 20C216 16.134 212.866 13 209 13C205.134 13 202 16.134 202 20C202 23.866 205.134 27 209 27Z" stroke="white" stroke-linecap="round" stroke-linejoin="round"/>
<path d="M209 19.9999L206.667 21.5555M209 16.111V19.9999" stroke="white" stroke-linecap="round" stroke-linejoin="round"/>
<path d="M226.084 25H232.868V23.752H228.644L231.62 19.784C231.86 19.448 232.788 18.392 232.788 16.888C232.788 15.032 231.444 13.608 229.38 13.608C226.66 13.608 226.02 16.136 226.02 16.136L227.172 16.568C227.172 16.568 227.604 14.856 229.38 14.856C230.772 14.856 231.444 15.816 231.444 16.888C231.444 18.12 230.436 19.24 230.02 19.784L226.084 25ZM247.724 17.416C246.108 17.416 245.516 18.792 245.516 18.792C245.516 18.792 245.052 17.416 243.212 17.416C241.708 17.416 241.164 18.696 241.164 18.696V17.608H239.916V25H241.26V19.848C241.26 19.848 241.756 18.664 242.844 18.664C243.804 18.664 244.428 19.256 244.428 20.456V25H245.772V19.848C245.772 19.848 246.252 18.664 247.356 18.664C248.316 18.664 248.94 19.256 248.94 20.456V25H250.284V20.248C250.284 18.424 249.26 17.416 247.724 17.416ZM252.898 25H254.242V17.608H252.898V25ZM252.658 15.24C252.658 15.736 253.074 16.152 253.57 16.152C254.066 16.152 254.482 15.736 254.482 15.24C254.482 14.744 254.066 14.328 253.57 14.328C253.074 14.328 252.658 14.744 252.658 15.24ZM260.373 17.416C258.773 17.416 258.101 18.648 258.101 18.648V17.608H256.853V25H258.197V19.912C258.197 19.912 258.837 18.664 260.037 18.664C261.029 18.664 261.813 19.208 261.813 20.472V25H263.157V20.248C263.157 18.424 261.845 17.416 260.373 17.416ZM268.316 25.192C269.916 25.192 270.588 23.864 270.588 23.864V25H271.836V17.608H270.492V22.728C270.492 22.728 269.9 23.944 268.652 23.944C267.66 23.944 266.876 23.4 266.876 22.136V17.608H265.532V22.36C265.532 24.184 266.844 25.192 268.316 25.192ZM273.572 18.824H275.012V22.872C275.012 24.504 276.18 25.192 277.236 25.192C277.668 25.192 278.132 25.096 278.772 24.744L278.276 23.64C278.276 23.64 277.844 23.944 277.428 23.944C276.708 23.944 276.356 23.528 276.356 22.808V18.824H278.66V17.608H276.356V15.352H275.012V17.608H273.572V18.824ZM283.731 17.416C281.507 17.416 280.035 19.144 280.035 21.304C280.035 23.496 281.651 25.192 283.891 25.192C285.843 25.192 286.963 23.736 286.963 23.736L286.115 22.856C286.115 22.856 285.347 23.944 283.891 23.944C282.499 23.944 281.427 22.904 281.347 21.784H287.315C287.331 21.608 287.331 21.496 287.331 21.352C287.331 18.968 285.795 17.416 283.731 17.416ZM281.379 20.664C281.475 19.896 282.131 18.664 283.731 18.664C285.219 18.664 285.971 19.832 286.019 20.664H281.379ZM297.296 17.416C295.888 17.416 295.232 18.744 295.232 18.744V17.608H293.984V25H295.328V19.912C295.328 19.912 295.856 18.664 297.024 18.664C297.584 18.664 297.872 18.824 297.872 18.824L298.368 17.608C298.368 17.608 297.904 17.416 297.296 17.416ZM302.675 17.416C300.451 17.416 298.979 19.144 298.979 21.304C298.979 23.496 300.595 25.192 302.835 25.192C304.787 25.192 305.907 23.736 305.907 23.736L305.059 22.856C305.059 22.856 304.291 23.944 302.835 23.944C301.443 23.944 300.371 22.904 300.291 21.784H306.259C306.275 21.608 306.275 21.496 306.275 21.352C306.275 18.968 304.739 17.416 302.675 17.416ZM300.323 20.664C300.419 19.896 301.075 18.664 302.675 18.664C304.163 18.664 304.915 19.832 304.963 20.664H300.323ZM311.052 17.416C309.436 17.416 308.284 18.168 308.284 18.168L308.844 19.288C308.844 19.288 309.932 18.664 311.052 18.664C311.644 18.664 312.924 18.872 312.924 20.408V20.808C312.924 20.808 312.06 20.2 310.7 20.2C309.036 20.2 307.772 21.224 307.772 22.664C307.772 24.264 309.196 25.192 310.524 25.192C312.204 25.192 313.036 23.928 313.036 23.928V25H314.268V20.136C314.268 18.76 313.228 17.416 311.052 17.416ZM310.812 24.008C309.98 24.008 309.116 23.624 309.116 22.664C309.116 21.896 309.836 21.32 310.988 21.32C312.188 21.32 312.924 21.848 312.924 21.848V22.888C312.924 22.888 312.124 24.008 310.812 24.008ZM319.703 17.416C317.703 17.416 316.119 19.128 316.119 21.304C316.119 23.48 317.703 25.192 319.703 25.192C321.479 25.192 322.199 23.928 322.199 23.928V25H323.431V12.904H322.087V18.52C322.087 18.52 321.335 17.416 319.703 17.416ZM322.087 22.664C322.087 22.664 321.383 23.944 319.911 23.944C318.407 23.944 317.463 22.76 317.463 21.304C317.463 19.848 318.439 18.664 319.911 18.664C321.383 18.664 322.087 19.944 322.087 19.944V22.664Z" fill="white"/>
<rect x="335" y="19.5" width="20" height="1" fill="white"/>
<path d="M367.4 26H365V17.6H367.4V26ZM372.2 26H369.8V14H372.2V20V26ZM377 26H374.6V21.2H377V26Z" fill="white"/>
<path d="M385.288 16.248L386.072 17.272L388.216 15.56V25H389.56V13.8H388.36L385.288 16.248ZM392.412 24.28C392.412 24.776 392.828 25.192 393.324 25.192C393.82 25.192 394.236 24.776 394.236 24.28C394.236 23.784 393.82 23.368 393.324 23.368C392.828 23.368 392.412 23.784 392.412 24.28ZM401.156 14.12L400.068 13.416C400.068 13.416 396.644 19.096 396.42 19.512C396.1 20.104 395.876 20.856 395.876 21.496C395.876 23.336 397.188 25.192 399.54 25.192C401.892 25.192 403.204 23.336 403.204 21.464C403.204 19.576 401.892 17.8 399.54 17.8C399.076 17.8 398.74 17.96 398.74 17.96L401.156 14.12ZM399.54 19.048C400.948 19.048 401.86 20.152 401.86 21.464C401.86 22.776 400.98 23.944 399.54 23.944C398.1 23.944 397.22 22.776 397.22 21.464C397.22 20.152 398.132 19.048 399.54 19.048ZM406.5 13.8H405.156V25H406.5V19.656L411.444 25H413.268L408.004 19.272L412.74 13.8H411.028L406.5 19.064V13.8ZM417.846 17.608L421.542 25.32L425.238 17.608H423.862L421.59 22.616L419.318 17.608H417.846ZM426.592 25H427.936V17.608H426.592V25ZM426.352 15.24C426.352 15.736 426.768 16.152 427.264 16.152C427.76 16.152 428.176 15.736 428.176 15.24C428.176 14.744 427.76 14.328 427.264 14.328C426.768 14.328 426.352 14.744 426.352 15.24ZM433.411 17.416C431.187 17.416 429.715 19.144 429.715 21.304C429.715 23.496 431.331 25.192 433.571 25.192C435.523 25.192 436.643 23.736 436.643 23.736L435.795 22.856C435.795 22.856 435.027 23.944 433.571 23.944C432.179 23.944 431.107 22.904 431.027 21.784H436.995C437.011 21.608 437.011 21.496 437.011 21.352C437.011 18.968 435.475 17.416 433.411 17.416ZM431.059 20.664C431.155 19.896 431.811 18.664 433.411 18.664C434.899 18.664 435.651 19.832 435.699 20.664H431.059ZM437.519 17.608L440.895 25.32L443.327 19.768L445.759 25.32L449.135 17.608H447.759L445.791 22.392L443.823 17.608H442.911L440.959 22.392L438.975 17.608H437.519ZM449.81 23.64C449.81 23.64 450.898 25.192 452.978 25.192C454.402 25.192 455.906 24.456 455.906 23.032C455.906 21.528 454.706 21 453.298 20.696C452.082 20.44 451.506 20.136 451.506 19.576C451.506 19.096 451.97 18.632 452.914 18.632C454.034 18.632 454.77 19.448 454.77 19.448L455.65 18.536C455.65 18.536 454.658 17.416 452.914 17.416C451.266 17.416 450.194 18.472 450.194 19.544C450.194 20.936 451.314 21.56 452.898 21.88C454.034 22.104 454.578 22.424 454.578 23.064C454.578 23.656 453.73 23.976 452.978 23.976C451.522 23.976 450.738 22.776 450.738 22.776L449.81 23.64Z" fill="white"/>
<rect x="467" y="19.5" width="20" height="1" fill="white"/>
<path d="M511.667 20C511.667 16.32 508.68 13.3333 505 13.3333C501.32 13.3333 498.333 16.32 498.333 20C498.333 23.2266 500.627 25.9133 503.667 26.5333V22H502.333V20H503.667V18.3333C503.667 17.0466 504.713 16 506 16H507.667V18H506.333C505.967 18 505.667 18.3 505.667 18.6666V20H507.667V22H505.667V26.6333C509.033 26.3 511.667 23.46 511.667 20Z" fill="white"/>
<path d="M537.973 16C537.46 16.2334 536.907 16.3867 536.333 16.46C536.92 16.1067 537.373 15.5467 537.587 14.8734C537.033 15.2067 536.42 15.44 535.773 15.5734C535.247 15 534.507 14.6667 533.667 14.6667C532.1 14.6667 530.82 15.9467 530.82 17.5267C530.82 17.7534 530.847 17.9734 530.893 18.18C528.52 18.06 526.407 16.92 525 15.1934C524.753 15.6134 524.613 16.1067 524.613 16.6267C524.613 17.62 525.113 18.5 525.887 19C525.413 19 524.973 18.8667 524.587 18.6667V18.6867C524.587 20.0734 525.573 21.2334 526.88 21.4934C526.46 21.6082 526.02 21.6241 525.593 21.54C525.774 22.1083 526.129 22.6056 526.607 22.962C527.086 23.3183 527.664 23.5158 528.26 23.5267C527.249 24.327 525.996 24.7596 524.707 24.7534C524.48 24.7534 524.253 24.74 524.027 24.7134C525.293 25.5267 526.8 26 528.413 26C533.667 26 536.553 21.64 536.553 17.86C536.553 17.7334 536.553 17.6134 536.547 17.4867C537.107 17.0867 537.587 16.58 537.973 16Z" fill="white"/>
<path d="M555.027 26.36C555.667 26.5533 556.313 26.6666 557 26.6666C558.768 26.6666 560.464 25.9643 561.714 24.714C562.964 23.4638 563.667 21.7681 563.667 20C563.667 19.1245 563.494 18.2576 563.159 17.4488C562.824 16.6399 562.333 15.905 561.714 15.2859C561.095 14.6669 560.36 14.1758 559.551 13.8408C558.742 13.5058 557.875 13.3333 557 13.3333C556.124 13.3333 555.258 13.5058 554.449 13.8408C553.64 14.1758 552.905 14.6669 552.286 15.2859C551.036 16.5362 550.333 18.2319 550.333 20C550.333 22.8333 552.113 25.2666 554.627 26.2266C554.567 25.7066 554.507 24.8466 554.627 24.2533L555.393 20.96C555.393 20.96 555.2 20.5733 555.2 19.96C555.2 19.04 555.773 18.3533 556.427 18.3533C557 18.3533 557.267 18.7733 557.267 19.3133C557.267 19.8866 556.887 20.7066 556.693 21.4933C556.58 22.1466 557.04 22.72 557.707 22.72C558.893 22.72 559.813 21.4533 559.813 19.6666C559.813 18.0666 558.667 16.9733 557.02 16.9733C555.14 16.9733 554.033 18.3733 554.033 19.8466C554.033 20.42 554.22 21 554.527 21.38C554.587 21.42 554.587 21.4733 554.567 21.5733L554.373 22.3C554.373 22.4133 554.3 22.4533 554.187 22.3733C553.333 22 552.84 20.7866 552.84 19.8066C552.84 17.7 554.333 15.7866 557.213 15.7866C559.507 15.7866 561.293 17.4333 561.293 19.62C561.293 21.9133 559.873 23.7533 557.84 23.7533C557.193 23.7533 556.56 23.4066 556.333 23L555.887 24.58C555.733 25.1533 555.313 25.92 555.027 26.38V26.36Z" fill="white"/>
<path d="M569.288 16.248L570.072 17.272L572.216 15.56V25H573.56V13.8H572.36L569.288 16.248ZM576.412 24.28C576.412 24.776 576.828 25.192 577.324 25.192C577.82 25.192 578.236 24.776 578.236 24.28C578.236 23.784 577.82 23.368 577.324 23.368C576.828 23.368 576.412 23.784 576.412 24.28ZM580.004 25H586.788V23.752H582.564L585.54 19.784C585.78 19.448 586.708 18.392 586.708 16.888C586.708 15.032 585.364 13.608 583.3 13.608C580.58 13.608 579.94 16.136 579.94 16.136L581.092 16.568C581.092 16.568 581.524 14.856 583.3 14.856C584.692 14.856 585.364 15.816 585.364 16.888C585.364 18.12 584.356 19.24 583.94 19.784L580.004 25ZM590.344 13.8H589V25H590.344V19.656L595.288 25H597.112L591.848 19.272L596.584 13.8H594.872L590.344 19.064V13.8ZM602.138 23.64C602.138 23.64 603.226 25.192 605.306 25.192C606.73 25.192 608.234 24.456 608.234 23.032C608.234 21.528 607.034 21 605.626 20.696C604.41 20.44 603.834 20.136 603.834 19.576C603.834 19.096 604.298 18.632 605.242 18.632C606.362 18.632 607.098 19.448 607.098 19.448L607.978 18.536C607.978 18.536 606.986 17.416 605.242 17.416C603.594 17.416 602.522 18.472 602.522 19.544C602.522 20.936 603.642 21.56 605.226 21.88C606.362 22.104 606.906 22.424 606.906 23.064C606.906 23.656 606.058 23.976 605.306 23.976C603.85 23.976 603.066 22.776 603.066 22.776L602.138 23.64ZM613.707 17.416C612.427 17.416 611.755 18.184 611.531 18.504V12.904H610.187V25H611.531V19.912C611.531 19.912 612.171 18.664 613.371 18.664C614.363 18.664 615.147 19.208 615.147 20.472V25H616.491V20.248C616.491 18.424 615.179 17.416 613.707 17.416ZM621.468 17.416C619.852 17.416 618.7 18.168 618.7 18.168L619.26 19.288C619.26 19.288 620.348 18.664 621.468 18.664C622.06 18.664 623.34 18.872 623.34 20.408V20.808C623.34 20.808 622.476 20.2 621.116 20.2C619.452 20.2 618.188 21.224 618.188 22.664C618.188 24.264 619.612 25.192 620.94 25.192C622.62 25.192 623.452 23.928 623.452 23.928V25H624.684V20.136C624.684 18.76 623.644 17.416 621.468 17.416ZM621.228 24.008C620.396 24.008 619.532 23.624 619.532 22.664C619.532 21.896 620.252 21.32 621.404 21.32C622.604 21.32 623.34 21.848 623.34 21.848V22.888C623.34 22.888 622.54 24.008 621.228 24.008ZM630.039 17.416C628.631 17.416 627.975 18.744 627.975 18.744V17.608H626.727V25H628.071V19.912C628.071 19.912 628.599 18.664 629.767 18.664C630.327 18.664 630.615 18.824 630.615 18.824L631.111 17.608C631.111 17.608 630.647 17.416 630.039 17.416ZM635.099 17.416C632.875 17.416 631.403 19.144 631.403 21.304C631.403 23.496 633.019 25.192 635.259 25.192C637.211 25.192 638.331 23.736 638.331 23.736L637.483 22.856C637.483 22.856 636.715 23.944 635.259 23.944C633.867 23.944 632.795 22.904 632.715 21.784H638.683C638.699 21.608 638.699 21.496 638.699 21.352C638.699 18.968 637.163 17.416 635.099 17.416ZM632.747 20.664C632.843 19.896 633.499 18.664 635.099 18.664C636.587 18.664 637.339 19.832 637.387 20.664H632.747ZM639.747 23.64C639.747 23.64 640.835 25.192 642.915 25.192C644.339 25.192 645.843 24.456 645.843 23.032C645.843 21.528 644.643 21 643.235 20.696C642.019 20.44 641.443 20.136 641.443 19.576C641.443 19.096 641.907 18.632 642.851 18.632C643.971 18.632 644.707 19.448 644.707 19.448L645.587 18.536C645.587 18.536 644.595 17.416 642.851 17.416C641.203 17.416 640.131 18.472 640.131 19.544C640.131 20.936 641.251 21.56 642.835 21.88C643.971 22.104 644.515 22.424 644.515 23.064C644.515 23.656 643.667 23.976 642.915 23.976C641.459 23.976 640.675 22.776 640.675 22.776L639.747 23.64Z" fill="white"/>
</svg>
